<svg width="36" height="40" viewBox="0 0 36 40" fill="none" xmlns="http://www.w3.org/2000/svg">
<g clip-path="url(#clip0_1362_1026)">
<g clip-path="url(#clip1_1362_1026)">
<path d="M27.7972 3.48435C28.2581 2.41404 27.9144 1.16404 26.9691 0.476537C26.0237 -0.210963 24.7347 -0.148463 23.8519 0.617162L3.85187 18.1172C3.07062 18.8047 2.78937 19.9062 3.15656 20.875C3.52375 21.8437 4.46125 22.5 5.50031 22.5H14.2112L8.20343 36.5156C7.7425 37.5859 8.08625 38.8359 9.03156 39.5234C9.97687 40.2109 11.2659 40.1484 12.1487 39.3828L32.1487 21.8828C32.93 21.1953 33.2112 20.0937 32.8441 19.125C32.4769 18.1562 31.5472 17.5078 30.5003 17.5078H21.7894L27.7972 3.48435Z" fill="#2FB4CF"/>
</g>
</g>
<defs>
<clipPath id="clip0_1362_1026">
<rect width="35" height="40" fill="white" transform="translate(0.5)"/>
</clipPath>
<clipPath id="clip1_1362_1026">
<path d="M0.5 0H35.5V40H0.5V0Z" fill="white"/>
</clipPath>
</defs>
</svg>
