<svg width="35" height="40" viewBox="0 0 35 40" fill="none" xmlns="http://www.w3.org/2000/svg">
<path d="M17.5 5C14.0469 5 11.25 7.79688 11.25 11.25V15H30C32.7578 15 35 17.2422 35 20V35C35 37.7578 32.7578 40 30 40H5C2.24219 40 0 37.7578 0 35V20C0 17.2422 2.24219 15 5 15H6.25V11.25C6.25 5.03906 11.2891 0 17.5 0C21.9922 0 25.8594 2.63281 27.6641 6.42969C28.2578 7.67969 27.7266 9.17188 26.4766 9.75781C25.2266 10.3438 23.7344 9.82031 23.1484 8.57031C22.1406 6.45312 19.9922 5 17.5 5ZM20 30C21.3828 30 22.5 28.8828 22.5 27.5C22.5 26.1172 21.3828 25 20 25H15C13.6172 25 12.5 26.1172 12.5 27.5C12.5 28.8828 13.6172 30 15 30H20Z" fill="#2FB4CF"/>
</svg>
