<svg width="36" height="40" viewBox="0 0 36 40" fill="none" xmlns="http://www.w3.org/2000/svg">
<path d="M17.6324 0.0390625C17.8746 -0.0078125 18.1246 -0.0078125 18.3668 0.0390625L33.9918 3.16406C34.8668 3.33594 35.4996 4.10938 35.4996 5C35.4996 5.89062 34.8668 6.66406 33.9918 6.83594L27.9996 8.03906V12.5C27.9996 18.0234 23.523 22.5 17.9996 22.5C12.4761 22.5 7.99957 18.0234 7.99957 12.5V8.03906L4.24957 7.28906V12.375L5.47613 18.5C5.54645 18.8672 5.4527 19.25 5.21832 19.5391C4.98395 19.8281 4.62457 20 4.24957 20H1.74957C1.37457 20 1.02301 19.8359 0.780822 19.5391C0.538634 19.2422 0.444884 18.8672 0.523009 18.5L1.74957 12.375V6.76562C1.00738 6.50781 0.499572 5.80469 0.499572 5C0.499572 4.10938 1.13238 3.33594 2.00738 3.16406L17.6324 0.0390625ZM9.24176 25.6016C10.0621 25.3359 10.9449 25.6328 11.5386 26.2656L17.0855 32.1641C17.5777 32.6875 18.4136 32.6875 18.9058 32.1641L24.4527 26.2656C25.0464 25.6328 25.9293 25.3359 26.7496 25.6016C31.8277 27.2344 35.4996 31.9844 35.4996 37.6016C35.4996 38.9297 34.4214 40 33.1011 40H2.89801C1.5777 40 0.499572 38.9219 0.499572 37.6016C0.499572 31.9844 4.17145 27.2344 9.24176 25.6016Z" fill="#2FB4CF"/>
</svg>
