<svg width="40" height="39" viewBox="0 0 40 39" fill="none" xmlns="http://www.w3.org/2000/svg">
<path d="M39.375 19.5625C39.375 30.263 30.7005 38.9375 20 38.9375C9.29945 38.9375 0.625 30.263 0.625 19.5625C0.625 8.86195 9.29945 0.1875 20 0.1875C30.7005 0.1875 39.375 8.86195 39.375 19.5625ZM28.3085 16.8023C28.6942 14.2243 26.7311 12.8384 24.0468 11.9138L24.9176 8.42148L22.7916 7.89172L21.9438 11.292C21.3849 11.1527 20.8109 11.0214 20.2405 10.8912L21.0943 7.46859L18.9695 6.93883L18.0981 10.4299C17.6355 10.3245 17.1813 10.2204 16.7405 10.1109L16.743 10.0999L13.8109 9.36789L13.2454 11.6384C13.2454 11.6384 14.8228 11.9998 14.7895 12.0222C15.6506 12.2371 15.8062 12.8069 15.7802 13.2585L14.7883 17.237C14.8477 17.2522 14.9245 17.274 15.0093 17.3079C14.9384 17.2903 14.8627 17.2709 14.7846 17.2522L13.3943 22.8255C13.2889 23.087 13.0219 23.4794 12.42 23.3305C12.4412 23.3613 10.8747 22.9448 10.8747 22.9448L9.81922 25.3781L12.5859 26.0677C13.1006 26.1967 13.6051 26.3317 14.1016 26.4588L13.2217 29.9911L15.3453 30.5209L16.2166 27.0261C16.7798 27.1787 17.3446 27.3253 17.9109 27.4657L17.0426 30.9441L19.1686 31.4738L20.0484 27.9482C23.6737 28.6342 26.3999 28.3575 27.5473 25.0789C28.472 22.4391 27.5013 20.9163 25.5939 19.9234C26.983 19.6032 28.0294 18.6896 28.3085 16.8023ZM23.4509 23.6132C22.7939 26.253 18.3488 24.8259 16.9076 24.4681L18.0751 19.7885C19.5162 20.1481 24.1376 20.8602 23.4509 23.6132ZM24.1085 16.7642C23.5091 19.1655 19.8092 17.9455 18.6091 17.6464L19.6675 13.4021C20.8677 13.7012 24.7328 14.2594 24.1085 16.7642Z" fill="#F7931A"/>
</svg>
