<svg width="40" height="41" viewBox="0 0 40 41" fill="none" xmlns="http://www.w3.org/2000/svg">
<g clip-path="url(#clip0_1459_621)">
<path d="M40 40.5625H0V0.5625H40V40.5625Z" stroke="#E5E7EB"/>
<path d="M39.375 20.5625C39.375 31.263 30.7005 39.9375 20 39.9375C9.29945 39.9375 0.625 31.263 0.625 20.5625C0.625 9.86195 9.29945 1.1875 20 1.1875C30.7005 1.1875 39.375 9.86195 39.375 20.5625ZM28.3085 17.8023C28.6942 15.2243 26.7311 13.8384 24.0468 12.9138L24.9176 9.42148L22.7916 8.89172L21.9438 12.292C21.3849 12.1527 20.8109 12.0214 20.2405 11.8912L21.0943 8.46859L18.9695 7.93883L18.0981 11.4299C17.6355 11.3245 17.1813 11.2204 16.7405 11.1109L16.743 11.0999L13.8109 10.3679L13.2454 12.6384C13.2454 12.6384 14.8228 12.9998 14.7895 13.0222C15.6506 13.2371 15.8062 13.8069 15.7802 14.2585L14.7883 18.237C14.8477 18.2522 14.9245 18.274 15.0093 18.3079C14.9384 18.2903 14.8627 18.2709 14.7846 18.2522L13.3943 23.8255C13.2889 24.087 13.0219 24.4794 12.42 24.3305C12.4412 24.3613 10.8747 23.9448 10.8747 23.9448L9.81922 26.3781L12.5859 27.0677C13.1006 27.1967 13.6051 27.3317 14.1016 27.4588L13.2217 30.9911L15.3453 31.5209L16.2166 28.0261C16.7798 28.1787 17.3446 28.3253 17.9109 28.4657L17.0426 31.9441L19.1686 32.4738L20.0484 28.9482C23.6737 29.6342 26.3999 29.3575 27.5473 26.0789C28.472 23.4391 27.5013 21.9163 25.5939 20.9234C26.983 20.6032 28.0294 19.6896 28.3085 17.8023ZM23.4509 24.6132C22.7939 27.253 18.3488 25.8259 16.9076 25.4681L18.0751 20.7885C19.5162 21.1481 24.1376 21.8602 23.4509 24.6132ZM24.1085 17.7642C23.5091 20.1655 19.8092 18.9455 18.6091 18.6464L19.6675 14.4021C20.8677 14.7012 24.7328 15.2594 24.1085 17.7642Z" fill="#F7931A"/>
</g>
<defs>
<clipPath id="clip0_1459_621">
<rect width="40" height="40" fill="white" transform="translate(0 0.5625)"/>
</clipPath>
</defs>
</svg>
