<svg width="34" height="27" viewBox="0 0 34 27" fill="none" xmlns="http://www.w3.org/2000/svg">
<path d="M14.752 26.627C15.3848 26.8496 16.0645 26.3867 16.0645 25.7187V3.60547C16.0645 3.35937 15.9707 3.11328 15.7715 2.96094C14.623 2.04687 11.9863 0.875 8.56445 0.875C5.60547 0.875 2.83984 1.6543 1.1875 2.28711C0.525391 2.54492 0.126953 3.20117 0.126953 3.91016V25.6074C0.126953 26.3047 0.876953 26.791 1.53906 26.5742C3.38477 25.959 6.30859 25.25 8.56445 25.25C10.5508 25.25 13.1934 26.0703 14.752 26.627ZM19.252 26.627C20.8105 26.0703 23.4531 25.25 25.4395 25.25C27.6953 25.25 30.6191 25.959 32.4648 26.5742C33.127 26.7969 33.877 26.3047 33.877 25.6074V3.91016C33.877 3.20117 33.4785 2.54492 32.8164 2.29297C31.1641 1.6543 28.3984 0.875 25.4395 0.875C22.0176 0.875 19.3809 2.04687 18.2324 2.96094C18.0391 3.11328 17.9395 3.35937 17.9395 3.60547V25.7187C17.9395 26.3867 18.625 26.8496 19.252 26.627Z" fill="#2AAFCB"/>
</svg>
