<svg width="64" height="56" viewBox="0 0 64 56" fill="none" xmlns="http://www.w3.org/2000/svg">
<path d="M64.002 56H0.00195312V0H64.002V56Z" stroke="#E5E7EB"/>
<path d="M28.002 2C42.3614 2 54.002 13.6406 54.002 28C54.002 42.3594 42.3614 54 28.002 54C13.6426 54 2.00195 42.3594 2.00195 28C2.00195 13.6406 13.6426 2 28.002 2Z" stroke="#2AAFCB" stroke-width="4"/>
<path d="M44.877 43H11.127V13H44.877V43Z" stroke="#E5E7EB"/>
<g clip-path="url(#clip0_1505_747)">
<path d="M25.752 40.627C26.3848 40.8496 27.0645 40.3867 27.0645 39.7187V17.6055C27.0645 17.3594 26.9707 17.1133 26.7715 16.9609C25.623 16.0469 22.9863 14.875 19.5645 14.875C16.6055 14.875 13.8398 15.6543 12.1875 16.2871C11.5254 16.5449 11.127 17.2012 11.127 17.9102V39.6074C11.127 40.3047 11.877 40.791 12.5391 40.5742C14.3848 39.959 17.3086 39.25 19.5645 39.25C21.5508 39.25 24.1934 40.0703 25.752 40.627ZM30.252 40.627C31.8105 40.0703 34.4531 39.25 36.4395 39.25C38.6953 39.25 41.6191 39.959 43.4648 40.5742C44.127 40.7969 44.877 40.3047 44.877 39.6074V17.9102C44.877 17.2012 44.4785 16.5449 43.8164 16.293C42.1641 15.6543 39.3984 14.875 36.4395 14.875C33.0176 14.875 30.3809 16.0469 29.2324 16.9609C29.0391 17.1133 28.9395 17.3594 28.9395 17.6055V39.7187C28.9395 40.3867 29.625 40.8496 30.252 40.627Z" fill="#2AAFCB"/>
</g>
<defs>
<clipPath id="clip0_1505_747">
<path d="M11.127 13H44.877V43H11.127V13Z" fill="white"/>
</clipPath>
</defs>
</svg>
