<svg width="36" height="37" viewBox="0 0 36 37" fill="none" xmlns="http://www.w3.org/2000/svg">
<path d="M36 36.4756H0.8125V1.28809H36V36.4756Z" stroke="#E5E7EB"/>
<g clip-path="url(#clip0_1459_624)">
<g clip-path="url(#clip1_1459_624)">
<path d="M36 6.10547C36 7.34253 35.0172 8.48337 33.3609 9.4043C31.361 10.5108 28.3783 11.2943 24.9558 11.5279C24.7015 11.4042 24.4472 11.2874 24.1792 11.1843C21.4714 10.0503 17.8702 9.4043 14.0078 9.4043C13.4374 9.4043 12.8807 9.41804 12.324 9.44553L12.2484 9.4043C10.5922 8.48337 9.60938 7.34253 9.60938 6.10547C9.60938 3.0678 15.5198 0.607422 22.8047 0.607422C30.0896 0.607422 36 3.0678 36 6.10547ZM11.8567 11.6791C12.5577 11.631 13.2793 11.6035 14.0078 11.6035C18.2825 11.6035 22.0762 12.4488 24.4885 13.7615C26.1929 14.6893 27.2031 15.8439 27.2031 17.1016C27.2031 17.3765 27.155 17.6445 27.0588 17.9057C26.7427 18.8128 25.8905 19.6444 24.6534 20.3454C24.6465 20.3523 24.6328 20.3523 24.6259 20.3592C24.6053 20.3729 24.5847 20.3798 24.5641 20.3935C22.1587 21.7268 18.3238 22.5927 14.0078 22.5927C9.91177 22.5927 6.24869 21.8161 3.82268 20.5928C3.6921 20.531 3.5684 20.4622 3.44469 20.3935C1.79528 19.4795 0.8125 18.3386 0.8125 17.1016C0.8125 14.7099 4.48245 12.6688 9.60938 11.9197C10.331 11.8166 11.0801 11.7341 11.8567 11.6791ZM29.4023 17.1016C29.4023 15.5965 28.6739 14.3594 27.7461 13.4316C29.691 13.1292 31.471 12.6481 32.9829 12.0227C34.1032 11.5554 35.1478 10.9781 36 10.2702V12.7031C36 14.0295 34.866 15.2528 32.9898 16.2013C31.9864 16.7098 30.7631 17.1428 29.3886 17.4727C29.3955 17.349 29.4023 17.2321 29.4023 17.1084V17.1016ZM27.2031 23.6992C27.2031 24.9363 26.2204 26.0771 24.5641 26.998C24.4404 27.0668 24.3167 27.1286 24.1861 27.1974C21.7669 28.4207 18.1039 29.1973 14.0078 29.1973C9.69185 29.1973 5.85696 28.3313 3.45156 26.998C1.79528 26.0771 0.8125 24.9363 0.8125 23.6992V21.2663C1.67157 21.9742 2.70933 22.5515 3.82955 23.0188C6.54421 24.1528 10.1454 24.7988 14.0078 24.7988C17.8702 24.7988 21.4714 24.1528 24.1861 23.0188C24.7221 22.7989 25.2376 22.5446 25.7255 22.2697C26.1448 22.0361 26.5365 21.7749 26.9076 21.5C27.0107 21.4244 27.1069 21.3419 27.2031 21.2663V21.5V21.8917V23.6992ZM29.4023 23.6992V21.5V19.72C30.7081 19.4314 31.9108 19.0671 32.9829 18.6204C34.1032 18.1531 35.1478 17.5758 36 16.8679V19.3008C36 20.0224 35.6564 20.744 34.976 21.4244C33.8558 22.5446 31.8833 23.4656 29.3886 24.0635C29.3955 23.9466 29.4023 23.8229 29.4023 23.6992ZM14.0078 31.3965C17.8702 31.3965 21.4714 30.7505 24.1861 29.6165C25.3063 29.1492 26.3509 28.5719 27.2031 27.864V30.2969C27.2031 33.3345 21.2927 35.7949 14.0078 35.7949C6.7229 35.7949 0.8125 33.3345 0.8125 30.2969V27.864C1.67157 28.5719 2.70933 29.1492 3.82955 29.6165C6.54421 30.7505 10.1454 31.3965 14.0078 31.3965Z" fill="#17D3FF"/>
</g>
</g>
<defs>
<clipPath id="clip0_1459_624">
<rect width="35.1875" height="35.1875" fill="white" transform="translate(0.8125 0.607422)"/>
</clipPath>
<clipPath id="clip1_1459_624">
<path d="M0.8125 0.607422H36V35.7949H0.8125V0.607422Z" fill="white"/>
</clipPath>
</defs>
</svg>
