<svg width="40" height="42" viewBox="0 0 40 42" fill="none" xmlns="http://www.w3.org/2000/svg">
<path d="M40 40.3232H0V0.323242H40V40.3232Z" stroke="#E5E7EB"/>
<g clip-path="url(#clip0_1459_620)">
<path d="M40 41.5625H0V1.5625H40V41.5625Z" stroke="#E5E7EB"/>
<path d="M39.375 21.5625C39.375 32.263 30.7005 40.9375 20 40.9375C9.29945 40.9375 0.625 32.263 0.625 21.5625C0.625 10.862 9.29945 2.1875 20 2.1875C30.7005 2.1875 39.375 10.862 39.375 21.5625ZM28.3085 18.8023C28.6942 16.2243 26.7311 14.8384 24.0468 13.9138L24.9176 10.4215L22.7916 9.89172L21.9438 13.292C21.3849 13.1527 20.8109 13.0214 20.2405 12.8912L21.0943 9.46859L18.9695 8.93883L18.0981 12.4299C17.6355 12.3245 17.1813 12.2204 16.7405 12.1109L16.743 12.0999L13.8109 11.3679L13.2454 13.6384C13.2454 13.6384 14.8228 13.9998 14.7895 14.0222C15.6506 14.2371 15.8062 14.8069 15.7802 15.2585L14.7883 19.237C14.8477 19.2522 14.9245 19.274 15.0093 19.3079C14.9384 19.2903 14.8627 19.2709 14.7846 19.2522L13.3943 24.8255C13.2889 25.087 13.0219 25.4794 12.42 25.3305C12.4412 25.3613 10.8747 24.9448 10.8747 24.9448L9.81922 27.3781L12.5859 28.0677C13.1006 28.1967 13.6051 28.3317 14.1016 28.4588L13.2217 31.9911L15.3453 32.5209L16.2166 29.0261C16.7798 29.1787 17.3446 29.3253 17.9109 29.4657L17.0426 32.9441L19.1686 33.4738L20.0484 29.9482C23.6737 30.6342 26.3999 30.3575 27.5473 27.0789C28.472 24.4391 27.5013 22.9163 25.5939 21.9234C26.983 21.6032 28.0294 20.6896 28.3085 18.8023ZM23.4509 25.6132C22.7939 28.253 18.3488 26.8259 16.9076 26.4681L18.0751 21.7885C19.5162 22.1481 24.1376 22.8602 23.4509 25.6132ZM24.1085 18.7642C23.5091 21.1655 19.8092 19.9455 18.6091 19.6464L19.6675 15.4021C20.8677 15.7012 24.7328 16.2594 24.1085 18.7642Z" fill="#F7931A"/>
</g>
<defs>
<clipPath id="clip0_1459_620">
<rect width="40" height="40" fill="white" transform="translate(0 1.5625)"/>
</clipPath>
</defs>
</svg>
