<svg width="15" height="14" viewBox="0 0 15 14" fill="none" xmlns="http://www.w3.org/2000/svg">
<g clip-path="url(#clip0_1459_1155)">
<path d="M8.375 0.875C8.375 0.391016 7.98398 0 7.5 0C7.01602 0 6.625 0.391016 6.625 0.875V7.51133L4.61797 5.5043C4.27617 5.1625 3.72109 5.1625 3.3793 5.5043C3.0375 5.84609 3.0375 6.40117 3.3793 6.74297L6.8793 10.243C7.22109 10.5848 7.77617 10.5848 8.11797 10.243L11.618 6.74297C11.9598 6.40117 11.9598 5.84609 11.618 5.5043C11.2762 5.1625 10.7211 5.1625 10.3793 5.5043L8.375 7.51133V0.875ZM2.25 9.625C1.28477 9.625 0.5 10.4098 0.5 11.375V12.25C0.5 13.2152 1.28477 14 2.25 14H12.75C13.7152 14 14.5 13.2152 14.5 12.25V11.375C14.5 10.4098 13.7152 9.625 12.75 9.625H9.97461L8.73594 10.8637C8.05234 11.5473 6.94492 11.5473 6.26133 10.8637L5.02539 9.625H2.25ZM12.3125 11.1562C12.4865 11.1562 12.6535 11.2254 12.7765 11.3485C12.8996 11.4715 12.9688 11.6385 12.9688 11.8125C12.9688 11.9865 12.8996 12.1535 12.7765 12.2765C12.6535 12.3996 12.4865 12.4688 12.3125 12.4688C12.1385 12.4688 11.9715 12.3996 11.8485 12.2765C11.7254 12.1535 11.6562 11.9865 11.6562 11.8125C11.6562 11.6385 11.7254 11.4715 11.8485 11.3485C11.9715 11.2254 12.1385 11.1562 12.3125 11.1562Z" fill="#C4C4C4"/>
</g>
<defs>
<clipPath id="clip0_1459_1155">
<path d="M0.5 0H14.5V14H0.5V0Z" fill="white"/>
</clipPath>
</defs>
</svg>
