<svg width="31" height="30" viewBox="0 0 31 30" fill="none" xmlns="http://www.w3.org/2000/svg">
<path d="M30.0264 4.6875C30.0264 5.74219 29.1885 6.71484 27.7764 7.5C26.0713 8.44336 23.5283 9.11133 20.6104 9.31055C20.3936 9.20508 20.1768 9.10547 19.9482 9.01758C17.6396 8.05078 14.5693 7.5 11.2764 7.5C10.79 7.5 10.3154 7.51172 9.84082 7.53516L9.77637 7.5C8.36426 6.71484 7.52637 5.74219 7.52637 4.6875C7.52637 2.09766 12.5654 0 18.7764 0C24.9873 0 30.0264 2.09766 30.0264 4.6875ZM9.44238 9.43945C10.04 9.39844 10.6553 9.375 11.2764 9.375C14.9209 9.375 18.1553 10.0957 20.2119 11.2148C21.665 12.0059 22.5264 12.9902 22.5264 14.0625C22.5264 14.2969 22.4854 14.5254 22.4033 14.748C22.1338 15.5215 21.4072 16.2305 20.3525 16.8281C20.3467 16.834 20.335 16.834 20.3291 16.8398C20.3115 16.8516 20.2939 16.8574 20.2764 16.8691C18.2256 18.0059 14.9561 18.7441 11.2764 18.7441C7.78418 18.7441 4.66113 18.082 2.59277 17.0391C2.48145 16.9863 2.37598 16.9277 2.27051 16.8691C0.864258 16.0898 0.0263672 15.1172 0.0263672 14.0625C0.0263672 12.0234 3.15527 10.2832 7.52637 9.64453C8.1416 9.55664 8.78027 9.48633 9.44238 9.43945ZM24.4014 14.0625C24.4014 12.7793 23.7803 11.7246 22.9893 10.9336C24.6475 10.6758 26.165 10.2656 27.4541 9.73242C28.4092 9.33398 29.2998 8.8418 30.0264 8.23828V10.3125C30.0264 11.4434 29.0596 12.4863 27.46 13.2949C26.6045 13.7285 25.5615 14.0977 24.3896 14.3789C24.3955 14.2734 24.4014 14.1738 24.4014 14.0684V14.0625ZM22.5264 19.6875C22.5264 20.7422 21.6885 21.7148 20.2764 22.5C20.1709 22.5586 20.0654 22.6113 19.9541 22.6699C17.8916 23.7129 14.7686 24.375 11.2764 24.375C7.59668 24.375 4.32715 23.6367 2.27637 22.5C0.864258 21.7148 0.0263672 20.7422 0.0263672 19.6875V17.6133C0.758789 18.2168 1.64355 18.709 2.59863 19.1074C4.91309 20.0742 7.9834 20.625 11.2764 20.625C14.5693 20.625 17.6396 20.0742 19.9541 19.1074C20.4111 18.9199 20.8506 18.7031 21.2666 18.4688C21.624 18.2695 21.958 18.0469 22.2744 17.8125C22.3623 17.748 22.4443 17.6777 22.5264 17.6133V17.8125V18.1465V19.6875ZM24.4014 19.6875V17.8125V16.2949C25.5146 16.0488 26.54 15.7383 27.4541 15.3574C28.4092 14.959 29.2998 14.4668 30.0264 13.8633V15.9375C30.0264 16.5527 29.7334 17.168 29.1533 17.748C28.1982 18.7031 26.5166 19.4883 24.3896 19.998C24.3955 19.8984 24.4014 19.793 24.4014 19.6875ZM11.2764 26.25C14.5693 26.25 17.6396 25.6992 19.9541 24.7324C20.9092 24.334 21.7998 23.8418 22.5264 23.2383V25.3125C22.5264 27.9023 17.4873 30 11.2764 30C5.06543 30 0.0263672 27.9023 0.0263672 25.3125V23.2383C0.758789 23.8418 1.64355 24.334 2.59863 24.7324C4.91309 25.6992 7.9834 26.25 11.2764 26.25Z" fill="#2AAFCB"/>
</svg>
