<svg width="28" height="24" viewBox="0 0 28 24" fill="none" xmlns="http://www.w3.org/2000/svg">
<g clip-path="url(#clip0_1459_1106)">
<path d="M18.8766 7.5C18.0469 7.5 17.3766 6.82969 17.3766 6C17.3766 5.17031 18.0469 4.5 18.8766 4.5H26.3766C27.2063 4.5 27.8766 5.17031 27.8766 6V13.5C27.8766 14.3297 27.2063 15 26.3766 15C25.5469 15 24.8766 14.3297 24.8766 13.5V9.62344L16.9359 17.5594C16.35 18.1453 15.3984 18.1453 14.8125 17.5594L9.87656 12.6234L3.43594 19.0594C2.85 19.6453 1.89844 19.6453 1.3125 19.0594C0.726562 18.4734 0.726562 17.5219 1.3125 16.9359L8.8125 9.43594C9.39844 8.85 10.35 8.85 10.9359 9.43594L15.8766 14.3766L22.7531 7.5H18.8766Z" fill="#C4B5FD"/>
</g>
<defs>
<clipPath id="clip0_1459_1106">
<path d="M0.876953 0H27.877V24H0.876953V0Z" fill="white"/>
</clipPath>
</defs>
</svg>
