<svg width="56" height="56" viewBox="0 0 56 56" fill="none" xmlns="http://www.w3.org/2000/svg">
<path d="M28 2C42.3594 2 54 13.6406 54 28C54 42.3594 42.3594 54 28 54C13.6406 54 2 42.3594 2 28C2 13.6406 13.6406 2 28 2Z" fill="#0C1F3E"/>
<path d="M28 2C42.3594 2 54 13.6406 54 28C54 42.3594 42.3594 54 28 54C13.6406 54 2 42.3594 2 28C2 13.6406 13.6406 2 28 2Z" stroke="#2FB4CF" stroke-width="4"/>
<g clip-path="url(#clip0_1362_935)">
<g clip-path="url(#clip1_1362_935)">
<path d="M16 16H43.1875V43.1875H16V16Z" fill="black" fill-opacity="0.05"/>
<path d="M19.3984 19.3984C19.3984 18.4586 18.6391 17.6992 17.6992 17.6992C16.7593 17.6992 16 18.4586 16 19.3984V37.2402C16 39.5873 17.901 41.4883 20.248 41.4883H41.4883C42.4282 41.4883 43.1875 40.7289 43.1875 39.7891C43.1875 38.8492 42.4282 38.0898 41.4883 38.0898H20.248C19.7808 38.0898 19.3984 37.7075 19.3984 37.2402V19.3984ZM40.9891 23.9969C41.6529 23.3332 41.6529 22.2552 40.9891 21.5915C40.3254 20.9277 39.2474 20.9277 38.5837 21.5915L32.9922 27.1883L29.9442 24.1403C29.2805 23.4766 28.2025 23.4766 27.5388 24.1403L21.5915 30.0876C20.9277 30.7513 20.9277 31.8293 21.5915 32.493C22.2552 33.1568 23.3332 33.1568 23.9969 32.493L28.7441 27.7512L31.7921 30.7991C32.4559 31.4629 33.5338 31.4629 34.1976 30.7991L40.9944 24.0023L40.9891 23.9969Z" fill="#2FB4CF"/>
</g>
</g>
<defs>
<clipPath id="clip0_1362_935">
<rect width="27.1875" height="27.1875" fill="white" transform="translate(16 16)"/>
</clipPath>
<clipPath id="clip1_1362_935">
<path d="M16 16H43.1875V43.1875H16V16Z" fill="white"/>
</clipPath>
</defs>
</svg>
