<svg width="56" height="56" viewBox="0 0 56 56" fill="none" xmlns="http://www.w3.org/2000/svg">
<path d="M28 2C42.3594 2 54 13.6406 54 28C54 42.3594 42.3594 54 28 54C13.6406 54 2 42.3594 2 28C2 13.6406 13.6406 2 28 2Z" fill="#0C1F3E"/>
<path d="M28 2C42.3594 2 54 13.6406 54 28C54 42.3594 42.3594 54 28 54C13.6406 54 2 42.3594 2 28C2 13.6406 13.6406 2 28 2Z" stroke="#2FB4CF" stroke-width="4"/>
<g clip-path="url(#clip0_1519_12)">
<path d="M12.9922 16.3984H42.9922V40.3984H12.9922V16.3984Z" fill="black" fill-opacity="0.05"/>
<path d="M14.8112 16.6375C14.3237 16.2531 13.6159 16.3422 13.2315 16.8297C12.8471 17.3172 12.9362 18.025 13.4237 18.4094L41.1737 40.1594C41.6612 40.5438 42.369 40.4547 42.7534 39.9672C43.1378 39.4797 43.0487 38.7719 42.5612 38.3875L37.63 34.525C39.4862 32.6219 40.7425 30.4891 41.3753 28.975C41.53 28.6047 41.53 28.1922 41.3753 27.8219C40.6768 26.1485 39.2096 23.711 37.0159 21.6766C34.8128 19.6235 31.78 17.8985 27.9925 17.8985C24.7956 17.8985 22.1331 19.1313 20.0565 20.7485L14.8112 16.6375ZM21.8893 22.1828C23.5862 20.9781 25.6253 20.1485 27.9925 20.1485C31.0487 20.1485 33.5612 21.536 35.4878 23.3219C37.2925 25 38.5393 26.9922 39.1768 28.3985C38.5862 29.711 37.4612 31.5297 35.8534 33.1281L33.3315 31.15C33.7581 30.325 33.9971 29.3922 33.9971 28.3985C33.9971 25.0844 31.3112 22.3985 27.9971 22.3985C26.4878 22.3985 25.105 22.9563 24.0503 23.875L21.8893 22.1828ZM31.5034 29.7203L27.6831 26.725C27.88 26.3266 27.9925 25.8719 27.9925 25.3985C27.9925 25.1406 27.9596 24.8875 27.8987 24.6485C27.9315 24.6485 27.9596 24.6485 27.9925 24.6485C30.0643 24.6485 31.7425 26.3266 31.7425 28.3985C31.7425 28.8625 31.6581 29.3078 31.5034 29.7203ZM31.944 35.8281C30.7487 36.3391 29.4315 36.6485 27.9925 36.6485C24.9362 36.6485 22.4237 35.261 20.4971 33.475C18.6925 31.7969 17.4456 29.8047 16.8081 28.3985C17.1971 27.536 17.8159 26.4531 18.655 25.361L16.8878 23.9688C15.819 25.361 15.055 26.7485 14.6096 27.8219C14.455 28.1922 14.455 28.6047 14.6096 28.975C15.3081 30.6485 16.7753 33.086 18.969 35.1203C21.1721 37.1735 24.205 38.8985 27.9925 38.8985C30.2331 38.8985 32.2065 38.2938 33.9081 37.375L31.944 35.8281ZM21.9925 28.3985C21.9925 31.7125 24.6784 34.3985 27.9925 34.3985C28.6159 34.3985 29.2159 34.3047 29.7831 34.1266L27.1487 32.0547C26.0471 31.8016 25.1284 31.061 24.6315 30.0719L22.0018 28C21.9925 28.1313 21.9878 28.2625 21.9878 28.3985H21.9925Z" fill="#2FB4CF"/>
</g>
<defs>
<clipPath id="clip0_1519_12">
<path d="M12.9922 16.3984H42.9922V40.3984H12.9922V16.3984Z" fill="white"/>
</clipPath>
</defs>
</svg>
