<svg width="56" height="56" viewBox="0 0 56 56" fill="none" xmlns="http://www.w3.org/2000/svg">
<path d="M28 2C42.3594 2 54 13.6406 54 28C54 42.3594 42.3594 54 28 54C13.6406 54 2 42.3594 2 28C2 13.6406 13.6406 2 28 2Z" fill="#0C1F3E"/>
<path d="M28 2C42.3594 2 54 13.6406 54 28C54 42.3594 42.3594 54 28 54C13.6406 54 2 42.3594 2 28C2 13.6406 13.6406 2 28 2Z" stroke="#2FB4CF" stroke-width="4"/>
<g clip-path="url(#clip0_1362_946)">
<path d="M14.9922 16.0938H40.9922V37.0938H14.9922V16.0938Z" fill="black" fill-opacity="0.05"/>
<path d="M20.8422 16.0938C21.7041 16.0938 22.5308 16.4395 23.1403 17.0548C23.7498 17.6702 24.0922 18.5048 24.0922 19.375C24.0922 20.2452 23.7498 21.0798 23.1403 21.6952C22.5308 22.3105 21.7041 22.6562 20.8422 22.6562C19.9802 22.6562 19.1536 22.3105 18.5441 21.6952C17.9346 21.0798 17.5922 20.2452 17.5922 19.375C17.5922 18.5048 17.9346 17.6702 18.5441 17.0548C19.1536 16.4395 19.9802 16.0938 20.8422 16.0938ZM35.7922 16.0938C36.6541 16.0938 37.4808 16.4395 38.0903 17.0548C38.6998 17.6702 39.0422 18.5048 39.0422 19.375C39.0422 20.2452 38.6998 21.0798 38.0903 21.6952C37.4808 22.3105 36.6541 22.6562 35.7922 22.6562C34.9302 22.6562 34.1036 22.3105 33.4941 21.6952C32.8846 21.0798 32.5422 20.2452 32.5422 19.375C32.5422 18.5048 32.8846 17.6702 33.4941 17.0548C34.1036 16.4395 34.9302 16.0938 35.7922 16.0938ZM14.9922 28.3451C14.9922 25.9293 16.9341 23.9688 19.3269 23.9688H21.0616C21.7075 23.9688 22.3209 24.1123 22.8734 24.3666C22.8206 24.6619 22.7962 24.9695 22.7962 25.2812C22.7962 26.848 23.4787 28.2549 24.5553 29.2188C24.5472 29.2188 24.5391 29.2188 24.5269 29.2188H15.8575C15.3822 29.2188 14.9922 28.825 14.9922 28.3451ZM31.4575 29.2188C31.4494 29.2188 31.4412 29.2188 31.4291 29.2188C32.5097 28.2549 33.1881 26.848 33.1881 25.2812C33.1881 24.9695 33.1597 24.666 33.1109 24.3666C33.6634 24.1082 34.2769 23.9688 34.9228 23.9688H36.6575C39.0503 23.9688 40.9922 25.9293 40.9922 28.3451C40.9922 28.8291 40.6022 29.2188 40.1269 29.2188H31.4575ZM24.0922 25.2812C24.0922 24.237 24.5031 23.2354 25.2345 22.497C25.9659 21.7586 26.9578 21.3438 27.9922 21.3438C29.0265 21.3438 30.0185 21.7586 30.7499 22.497C31.4813 23.2354 31.8922 24.237 31.8922 25.2812C31.8922 26.3255 31.4813 27.3271 30.7499 28.0655C30.0185 28.8039 29.0265 29.2188 27.9922 29.2188C26.9578 29.2188 25.9659 28.8039 25.2345 28.0655C24.5031 27.3271 24.0922 26.3255 24.0922 25.2812ZM20.1922 35.9986C20.1922 32.9799 22.6175 30.5312 25.6075 30.5312H30.3769C33.3669 30.5312 35.7922 32.9799 35.7922 35.9986C35.7922 36.6016 35.3087 37.0938 34.7075 37.0938H21.2769C20.6797 37.0938 20.1922 36.6057 20.1922 35.9986Z" fill="#2FB4CF"/>
</g>
<defs>
<clipPath id="clip0_1362_946">
<path d="M14.9922 16.0938H40.9922V37.0938H14.9922V16.0938Z" fill="white"/>
</clipPath>
</defs>
</svg>
