<svg width="56" height="56" viewBox="0 0 56 56" fill="none" xmlns="http://www.w3.org/2000/svg">
<path d="M28 2C42.3594 2 54 13.6406 54 28C54 42.3594 42.3594 54 28 54C13.6406 54 2 42.3594 2 28C2 13.6406 13.6406 2 28 2Z" fill="#0C1F3E"/>
<path d="M28 2C42.3594 2 54 13.6406 54 28C54 42.3594 42.3594 54 28 54C13.6406 54 2 42.3594 2 28C2 13.6406 13.6406 2 28 2Z" stroke="#2FB4CF" stroke-width="4"/>
<path d="M25.4934 10.1436C27.2349 10.1436 28.9051 10.8776 30.1366 12.1843C31.3681 13.491 32.0599 15.2632 32.0599 17.1111C32.0599 18.9591 31.3681 20.7313 30.1366 22.038C28.9051 23.3446 27.2349 24.0787 25.4934 24.0787C23.7518 24.0787 22.0816 23.3446 20.8501 22.038C19.6187 20.7313 18.9268 18.9591 18.9268 17.1111C18.9268 15.2632 19.6187 13.491 20.8501 12.1843C22.0816 10.8776 23.7518 10.1436 25.4934 10.1436ZM23.1489 26.6916H27.8378C28.4432 26.6916 29.0383 26.7569 29.6077 26.8712C29.5 27.8782 29.9873 28.8091 30.7261 29.3099C29.8745 29.8869 29.3563 31.03 29.7 32.2112C29.9052 32.9134 30.1823 33.5993 30.5414 34.2579C30.9005 34.9166 31.3212 35.5154 31.7931 36.0543C32.5985 36.9742 33.8246 37.0558 34.7275 36.5278V36.5768C34.7275 37.0776 34.8661 37.5839 35.1328 38.0084H15.5256C14.6843 38.0139 14.002 37.2899 14.002 36.3972C14.002 31.0354 18.0958 26.6916 23.1489 26.6916ZM36.3692 22.0211C36.3692 21.6401 36.6 21.2971 36.9489 21.2155C37.4875 21.0848 38.0518 21.0141 38.6264 21.0141C39.201 21.0141 39.7653 21.0848 40.304 21.2155C40.6528 21.2971 40.8837 21.6401 40.8837 22.0211V23.6868C41.2889 23.8719 41.6737 24.1059 42.0277 24.3836L43.3051 23.6051C43.618 23.4146 44.0079 23.4582 44.2541 23.7358C44.644 24.1767 44.9877 24.6721 45.2853 25.2164C45.5828 25.7607 45.8137 26.3269 45.9778 26.9039C46.0856 27.2686 45.9214 27.6496 45.6085 27.8401L44.3259 28.624C44.3465 28.8417 44.3619 29.0649 44.3619 29.2935C44.3619 29.5221 44.3516 29.7399 44.3259 29.9631L45.6085 30.7469C45.9214 30.9374 46.0804 31.3185 45.9778 31.6832C45.8085 32.2602 45.5777 32.8263 45.2853 33.3706C44.9929 33.915 44.644 34.4103 44.2541 34.8513C44.0079 35.1289 43.6129 35.1724 43.3051 34.9819L42.0277 34.2035C41.6737 34.4811 41.2941 34.7152 40.8837 34.9002V36.5659C40.8837 36.947 40.6528 37.2899 40.304 37.3716C39.7653 37.5022 39.201 37.573 38.6264 37.573C38.0518 37.573 37.4875 37.5022 36.9489 37.3716C36.6 37.2899 36.3692 36.947 36.3692 36.5659V34.9002C35.9588 34.7152 35.5689 34.4811 35.2149 34.198L33.9478 34.9765C33.6348 35.167 33.2449 35.1234 32.9987 34.8458C32.6088 34.4049 32.2651 33.9095 31.9675 33.3652C31.67 32.8209 31.4391 32.2547 31.275 31.6777C31.1673 31.313 31.3314 30.932 31.6444 30.7415L32.9166 29.9631C32.8961 29.7399 32.8807 29.5167 32.8807 29.2881C32.8807 29.0595 32.891 28.8363 32.9166 28.6131L31.6392 27.8347C31.3263 27.6442 31.1673 27.2631 31.2699 26.8984C31.4391 26.3214 31.6649 25.7553 31.9624 25.211C32.26 24.6666 32.6037 24.1713 32.9936 23.7303C33.2398 23.4527 33.6297 23.4092 33.9426 23.5997L35.2149 24.3781C35.5689 24.1005 35.9588 23.8664 36.3692 23.6759V22.0211ZM41.094 29.2881C41.1092 28.9346 41.0567 28.5814 40.9397 28.25C40.8227 27.9187 40.6435 27.6159 40.4131 27.36C40.1827 27.1041 39.9059 26.9005 39.5992 26.7613C39.2926 26.6222 38.9625 26.5504 38.629 26.5504C38.2955 26.5504 37.9654 26.6222 37.6588 26.7613C37.3521 26.9005 37.0752 27.1041 36.8448 27.36C36.6144 27.6159 36.4353 27.9187 36.3183 28.25C36.2013 28.5814 36.1488 28.9346 36.164 29.2881C36.1488 29.6416 36.2013 29.9947 36.3183 30.3261C36.4353 30.6575 36.6144 30.9603 36.8448 31.2161C37.0752 31.472 37.3521 31.6757 37.6588 31.8148C37.9654 31.954 38.2955 32.0257 38.629 32.0257C38.9625 32.0257 39.2926 31.954 39.5992 31.8148C39.9059 31.6757 40.1827 31.472 40.4131 31.2161C40.6435 30.9603 40.8227 30.6575 40.9397 30.3261C41.0567 29.9947 41.1092 29.6416 41.094 29.2881Z" fill="#2FB4CF"/>
</svg>
