<svg width="56" height="56" viewBox="0 0 56 56" fill="none" xmlns="http://www.w3.org/2000/svg">
<path d="M28 2C42.3594 2 54 13.6406 54 28C54 42.3594 42.3594 54 28 54C13.6406 54 2 42.3594 2 28C2 13.6406 13.6406 2 28 2Z" fill="#0C1F3E"/>
<path d="M28 2C42.3594 2 54 13.6406 54 28C54 42.3594 42.3594 54 28 54C13.6406 54 2 42.3594 2 28C2 13.6406 13.6406 2 28 2Z" stroke="#2FB4CF" stroke-width="4"/>
<path d="M53.3906 50.7969H3V6H53.3906V50.7969Z" fill="black" fill-opacity="0.05"/>
<path d="M53.3906 50.7969H3V6H53.3906V50.7969Z" stroke="#E5E7EB"/>
<g clip-path="url(#clip0_1362_902)">
<path d="M12.1953 14.3984H44.1953V42.3984H12.1953V14.3984Z" fill="black" fill-opacity="0.05"/>
<path d="M34.4175 14.3984H21.9731C20.5009 14.3984 19.3009 15.5906 19.3564 17.0344C19.3675 17.3242 19.3786 17.6141 19.3953 17.8984H13.5286C12.7898 17.8984 12.1953 18.4836 12.1953 19.2109C12.1953 24.275 14.0564 27.7969 16.5564 30.1867C19.0175 32.5438 22.0175 33.7305 24.2286 34.332C25.5286 34.6875 26.4175 35.7539 26.4175 36.8258C26.4175 37.9688 25.4731 38.8984 24.312 38.8984H22.862C21.8786 38.8984 21.0842 39.6805 21.0842 40.6484C21.0842 41.6164 21.8786 42.3984 22.862 42.3984H33.5286C34.512 42.3984 35.3064 41.6164 35.3064 40.6484C35.3064 39.6805 34.512 38.8984 33.5286 38.8984H32.0786C30.9175 38.8984 29.9731 37.9688 29.9731 36.8258C29.9731 35.7539 30.8564 34.682 32.162 34.332C34.3786 33.7305 37.3786 32.5438 39.8398 30.1867C42.3342 27.7969 44.1953 24.275 44.1953 19.2109C44.1953 18.4836 43.6009 17.8984 42.862 17.8984H36.9953C37.012 17.6141 37.0231 17.3297 37.0342 17.0344C37.0898 15.5906 35.8898 14.3984 34.4175 14.3984ZM14.912 20.5234H19.6009C20.1064 25.4508 21.2231 28.743 22.4842 30.9469C21.1009 30.3453 19.662 29.4977 18.4175 28.3055C16.6398 26.6047 15.1953 24.1492 14.9175 20.5234H14.912ZM37.9786 28.3055C36.7342 29.4977 35.2953 30.3453 33.912 30.9469C35.1731 28.743 36.2898 25.4508 36.7953 20.5234H41.4842C41.2009 24.1492 39.7564 26.6047 37.9842 28.3055H37.9786Z" fill="#2FB4CF"/>
</g>
<defs>
<clipPath id="clip0_1362_902">
<path d="M12.1953 14.3984H44.1953V42.3984H12.1953V14.3984Z" fill="white"/>
</clipPath>
</defs>
</svg>
