<svg width="56" height="56" viewBox="0 0 56 56" fill="none" xmlns="http://www.w3.org/2000/svg">
<path d="M28 2C42.3594 2 54 13.6406 54 28C54 42.3594 42.3594 54 28 54C13.6406 54 2 42.3594 2 28C2 13.6406 13.6406 2 28 2Z" fill="#0C1F3E"/>
<path d="M28 2C42.3594 2 54 13.6406 54 28C54 42.3594 42.3594 54 28 54C13.6406 54 2 42.3594 2 28C2 13.6406 13.6406 2 28 2Z" stroke="#2FB4CF" stroke-width="4"/>
<path d="M23.0625 18.4375C23.0625 16.9954 23.6354 15.6123 24.6551 14.5926C25.6748 13.5729 27.0579 13 28.5 13C29.9421 13 31.3252 13.5729 32.3449 14.5926C33.3646 15.6123 33.9375 16.9954 33.9375 18.4375C33.9375 19.8796 33.3646 21.2627 32.3449 22.2824C31.3252 23.3021 29.9421 23.875 28.5 23.875C27.0579 23.875 25.6748 23.3021 24.6551 22.2824C23.6354 21.2627 23.0625 19.8796 23.0625 18.4375ZM27.5938 27.0469V42L24.8523 40.6293C23.6686 40.0402 22.3885 39.6664 21.0688 39.5361L15.6312 38.9924C14.708 38.8961 14 38.1201 14 37.1855V25.6875C14 24.685 14.81 23.875 15.8125 23.875H17.5287C21.1311 23.875 24.6428 24.9852 27.5938 27.0469ZM29.4062 42V27.0469C32.3572 24.9852 35.8689 23.875 39.4713 23.875H41.1875C42.19 23.875 43 24.685 43 25.6875V37.1855C43 38.1145 42.292 38.8961 41.3688 38.9867L35.9313 39.5305C34.6172 39.6607 33.3314 40.0346 32.1477 40.6236L29.4062 42Z" fill="#2FB4CF"/>
</svg>
