<svg width="28" height="24" viewBox="0 0 28 24" fill="none" xmlns="http://www.w3.org/2000/svg">
<g clip-path="url(#clip0_1459_1127)">
<path d="M19.127 0H8.62695C7.38477 0 6.37227 1.02188 6.41914 2.25938C6.42852 2.50781 6.43789 2.75625 6.45195 3H1.50195C0.878516 3 0.376953 3.50156 0.376953 4.125C0.376953 8.46562 1.94727 11.4844 4.05664 13.5328C6.1332 15.5531 8.66445 16.5703 10.5301 17.0859C11.627 17.3906 12.377 18.3047 12.377 19.2234C12.377 20.2031 11.5801 21 10.6004 21H9.37695C8.54727 21 7.87695 21.6703 7.87695 22.5C7.87695 23.3297 8.54727 24 9.37695 24H18.377C19.2066 24 19.877 23.3297 19.877 22.5C19.877 21.6703 19.2066 21 18.377 21H17.1535C16.1738 21 15.377 20.2031 15.377 19.2234C15.377 18.3047 16.1223 17.3859 17.2238 17.0859C19.0941 16.5703 21.6254 15.5531 23.702 13.5328C25.8066 11.4844 27.377 8.46562 27.377 4.125C27.377 3.50156 26.8754 3 26.252 3H21.302C21.316 2.75625 21.3254 2.5125 21.3348 2.25938C21.3816 1.02188 20.3691 0 19.127 0ZM2.66914 5.25H6.62539C7.05195 9.47344 7.99414 12.2953 9.0582 14.1844C7.89102 13.6688 6.67695 12.9422 5.62695 11.9203C4.12695 10.4625 2.9082 8.35781 2.67383 5.25H2.66914ZM22.1316 11.9203C21.0816 12.9422 19.8676 13.6688 18.7004 14.1844C19.7645 12.2953 20.7066 9.47344 21.1332 5.25H25.0895C24.8504 8.35781 23.6316 10.4625 22.1363 11.9203H22.1316Z" fill="#FACC15"/>
</g>
<defs>
<clipPath id="clip0_1459_1127">
<path d="M0.376953 0H27.377V24H0.376953V0Z" fill="white"/>
</clipPath>
</defs>
</svg>
