<svg width="25" height="24" viewBox="0 0 25 24" fill="none" xmlns="http://www.w3.org/2000/svg">
<g clip-path="url(#clip0_1459_1086)">
<path d="M3.87695 3C3.87695 2.17031 3.20664 1.5 2.37695 1.5C1.54727 1.5 0.876953 2.17031 0.876953 3V18.75C0.876953 20.8219 2.55508 22.5 4.62695 22.5H23.377C24.2066 22.5 24.877 21.8297 24.877 21C24.877 20.1703 24.2066 19.5 23.377 19.5H4.62695C4.21445 19.5 3.87695 19.1625 3.87695 18.75V3ZM22.9363 7.05938C23.5223 6.47344 23.5223 5.52188 22.9363 4.93594C22.3504 4.35 21.3988 4.35 20.8129 4.93594L15.877 9.87656L13.1863 7.18594C12.6004 6.6 11.6488 6.6 11.0629 7.18594L5.81289 12.4359C5.22695 13.0219 5.22695 13.9734 5.81289 14.5594C6.39883 15.1453 7.35039 15.1453 7.93633 14.5594L12.127 10.3734L14.8176 13.0641C15.4035 13.65 16.3551 13.65 16.941 13.0641L22.941 7.06406L22.9363 7.05938Z" fill="#2FB4CF"/>
</g>
<defs>
<clipPath id="clip0_1459_1086">
<path d="M0.876953 0H24.877V24H0.876953V0Z" fill="white"/>
</clipPath>
</defs>
</svg>
