<svg width="31" height="30" viewBox="0 0 31 30" fill="none" xmlns="http://www.w3.org/2000/svg">
<g clip-path="url(#clip0_1459_1070)">
<path d="M21.8634 3.62858C20.664 1.50884 18.4054 0.179797 15.9525 0.138823C13.4234 0.0965789 11.0613 1.42906 9.81832 3.61101L8.84066 5.32724C8.21888 6.41872 7.30587 7.31969 6.20161 7.93152L4.45838 8.89735C2.30333 10.0913 0.957444 12.3356 0.929843 14.7812L0.927191 15.0163C0.898995 17.5145 2.25039 19.8287 4.45083 21.0501L6.11949 21.9764C7.22747 22.5914 8.14241 23.4977 8.76338 24.5951L9.69855 26.2479C10.9318 28.4273 13.2681 29.766 15.7904 29.738L16.0529 29.7351C18.5085 29.7077 20.7642 28.389 21.9748 26.2727L23.049 24.3949C23.6728 23.3044 24.5876 22.4049 25.6931 21.7951L27.2719 20.9242C29.4934 19.6987 30.8535 17.3614 30.8108 14.8432C30.7692 12.4138 29.4278 10.1891 27.2879 9.00129L25.5059 8.01206C24.3979 7.39701 23.4829 6.49078 22.862 5.39335L21.8634 3.62858Z" fill="#7556F6"/>
<path d="M21.7717 10.099C20.8908 9.84489 19.9786 9.48349 19.0536 9.11932C19.0002 8.88815 18.7952 8.60012 18.3796 8.24698C17.7754 7.72412 16.6407 7.73786 15.6605 7.96904C14.5782 7.71495 13.5088 7.62412 12.4826 7.86995C4.09099 10.1769 8.72002 16.0496 5.63867 21.7065C9.91416 24.0444 9.42329 26.3287 17.416 26.5507C17.416 26.5507 15.4306 20.7424 20.7078 18.051C24.9882 15.8688 28.0806 11.8162 21.7708 10.0981L21.7717 10.099Z" fill="#B7A2FF"/>
<path d="M24.7084 14.8168C22.8077 16.1533 20.6441 17.1669 17.5775 17.1669C16.1421 17.1669 15.8506 15.6451 14.9016 16.3909C14.4116 16.7761 12.6847 17.6375 11.3136 17.5723C9.93068 17.5063 7.72288 16.7046 7.10219 13.7867C7.13721 16.724 7.0471 19.268 5.63574 21.7103C7.2899 21.9303 9.50912 26.2211 10.3845 27.2303C12.8496 30.0723 15.0631 29.8926 17.5056 29.5771C16.9971 26.0337 20.3646 19.3354 22.1135 17.5595C22.7756 16.8871 24.0445 15.7891 24.7084 14.8168Z" fill="#B7A2FF"/>
<path d="M15.4346 7.96471C16.1859 8.26214 18.9295 9.16722 20.1165 9.52251C18.9045 7.53065 17.0678 7.64559 15.4346 7.96471Z" fill="#AC94FF"/>
<path d="M16.2411 11.4482C16.2411 12.7416 15.1901 13.7892 13.8945 13.7892C12.5989 13.7892 11.5479 12.7416 11.5479 11.4482C11.5479 10.1548 12.5989 9.10822 13.8945 9.10822C15.1901 9.10822 16.2411 10.1558 16.2411 11.4482Z" fill="white"/>
<path d="M14.8839 13.3411C15.6444 13.3411 16.2609 12.4862 16.2609 11.4316C16.2609 10.377 15.6444 9.52213 14.8839 9.52213C14.1234 9.52213 13.5068 10.377 13.5068 11.4316C13.5068 12.4862 14.1234 13.3411 14.8839 13.3411Z" fill="black"/>
<path d="M14.8839 11.4314L13.2314 10.3402V12.5225L14.8839 11.4314Z" fill="white"/>
</g>
<defs>
<clipPath id="clip0_1459_1070">
<rect width="30" height="30" fill="white" transform="translate(0.876953)"/>
</clipPath>
</defs>
</svg>
