<svg width="56" height="56" viewBox="0 0 56 56" fill="none" xmlns="http://www.w3.org/2000/svg">
<path d="M28 2C42.3594 2 54 13.6406 54 28C54 42.3594 42.3594 54 28 54C13.6406 54 2 42.3594 2 28C2 13.6406 13.6406 2 28 2Z" fill="#0C1F3E"/>
<path d="M28 2C42.3594 2 54 13.6406 54 28C54 42.3594 42.3594 54 28 54C13.6406 54 2 42.3594 2 28C2 13.6406 13.6406 2 28 2Z" stroke="#2FB4CF" stroke-width="4"/>
<g clip-path="url(#clip0_1362_620)">
<path d="M27.907 21.8707C28.2731 21.5508 28.4175 21.048 28.2267 20.6012C28.1081 20.332 27.9792 20.068 27.8348 19.8141L27.675 19.5398C27.5203 19.2859 27.3501 19.0371 27.1696 18.7984C26.8757 18.4125 26.3601 18.2855 25.8961 18.4379L24.442 18.9102C23.8903 18.4633 23.2561 18.0977 22.5754 17.8488L22.2609 16.3762C22.1629 15.9039 21.7917 15.5281 21.307 15.4723C20.9667 15.4266 20.6212 15.4062 20.2706 15.4062H20.2345C19.8839 15.4062 19.5384 15.4266 19.1981 15.4672C18.7134 15.523 18.3421 15.9039 18.2442 16.3711L17.9296 17.8488C17.2439 18.1027 16.6148 18.4633 16.0631 18.9102L14.6039 18.443C14.1398 18.2906 13.6242 18.4176 13.3303 18.8035C13.1498 19.0422 12.9796 19.291 12.8198 19.5449L12.6651 19.8141C12.5207 20.068 12.3918 20.332 12.2732 20.6063C12.0825 21.048 12.2268 21.5508 12.5929 21.8758L13.7376 22.8813C13.6809 23.2215 13.65 23.577 13.65 23.9375C13.65 24.298 13.6809 24.6535 13.7376 24.9988L12.5929 26.0043C12.2268 26.3242 12.0825 26.827 12.2732 27.2738C12.3918 27.543 12.5207 27.807 12.6651 28.066L12.8198 28.3301C12.9745 28.5891 13.1446 28.8328 13.3303 29.0715C13.6242 29.4574 14.1398 29.5844 14.6039 29.432L16.0579 28.9598C16.6096 29.4066 17.2439 29.7723 17.9245 30.0211L18.239 31.4988C18.337 31.9711 18.7082 32.3469 19.1929 32.4027C19.5384 32.4434 19.889 32.4637 20.2448 32.4637C20.6006 32.4637 20.9512 32.4434 21.2967 32.4027C21.7814 32.3469 22.1526 31.966 22.2506 31.4988L22.5651 30.0211C23.2509 29.7672 23.88 29.4066 24.4317 28.9598L25.8857 29.432C26.3498 29.5844 26.8654 29.4574 27.1593 29.0715C27.3398 28.8328 27.51 28.5891 27.6646 28.3301L27.8245 28.0559C27.9689 27.802 28.0978 27.5379 28.2164 27.2688C28.4071 26.827 28.2628 26.3242 27.8967 25.9992L26.752 24.9938C26.8087 24.6484 26.8396 24.293 26.8396 23.9324C26.8396 23.5719 26.8087 23.2164 26.752 22.8711L27.8967 21.8656L27.907 21.8707ZM17.775 23.9375C17.775 23.291 18.0357 22.671 18.4999 22.2139C18.964 21.7568 19.5935 21.5 20.25 21.5C20.9064 21.5 21.5359 21.7568 22 22.2139C22.4642 22.671 22.725 23.291 22.725 23.9375C22.725 24.584 22.4642 25.204 22 25.6611C21.5359 26.1182 20.9064 26.375 20.25 26.375C19.5935 26.375 18.964 26.1182 18.4999 25.6611C18.0357 25.204 17.775 24.584 17.775 23.9375ZM38.0236 40.416C38.3484 40.7766 38.8589 40.9188 39.3126 40.7309C39.5859 40.6141 39.854 40.4871 40.1118 40.3449L40.3903 40.1875C40.6481 40.0352 40.9007 39.8676 41.1431 39.6898C41.535 39.4004 41.6639 38.8926 41.5092 38.4355L41.0296 37.0035C41.4834 36.4602 41.8546 35.8355 42.1073 35.1652L43.6078 34.8555C44.0873 34.759 44.4689 34.3934 44.5256 33.916C44.5668 33.5758 44.5875 33.2305 44.5875 32.8801C44.5875 32.5297 44.5668 32.1844 44.5256 31.8441C44.4689 31.3668 44.0821 31.0012 43.6078 30.9047L42.1073 30.5898C41.8495 29.9145 41.4834 29.2949 41.0296 28.7516L41.5092 27.3195C41.6639 26.8625 41.535 26.3547 41.1431 26.0652C40.9007 25.8875 40.6481 25.7199 40.3903 25.5625L40.117 25.4102C39.8592 25.268 39.5911 25.141 39.3126 25.0242C38.864 24.8363 38.3536 24.9785 38.0236 25.3391L37.0026 26.4664C36.652 26.4105 36.2911 26.3801 35.925 26.3801C35.5589 26.3801 35.1979 26.4105 34.8473 26.4664L33.8264 25.3391C33.5015 24.9785 32.9911 24.8363 32.5373 25.0242C32.264 25.141 31.9959 25.268 31.7329 25.4102L31.4648 25.5625C31.2018 25.7148 30.9543 25.8824 30.712 26.0652C30.3201 26.3547 30.1912 26.8625 30.3459 27.3195L30.8254 28.7516C30.3717 29.2949 30.0004 29.9195 29.7478 30.5898L28.2473 30.8945C27.7678 30.991 27.3862 31.3566 27.3295 31.834C27.2882 32.1742 27.2676 32.5195 27.2676 32.8699C27.2676 33.2203 27.2882 33.5656 27.3295 33.9059C27.3862 34.3832 27.7729 34.7488 28.2473 34.8453L29.7478 35.1551C30.0056 35.8305 30.3717 36.45 30.8254 36.9934L30.3459 38.4254C30.1912 38.8824 30.3201 39.3902 30.712 39.6797C30.9543 39.8574 31.2018 40.025 31.4648 40.1773L31.7432 40.3348C32.0011 40.477 32.2692 40.6039 32.5425 40.7207C32.9911 40.9086 33.5015 40.7664 33.8315 40.4059L34.8525 39.2785C35.2031 39.3344 35.564 39.3648 35.9301 39.3648C36.2962 39.3648 36.6571 39.3344 37.0078 39.2785L38.0287 40.4059L38.0236 40.416ZM35.925 30.4375C36.25 30.4375 36.5718 30.5005 36.8721 30.623C37.1724 30.7455 37.4452 30.9251 37.675 31.1514C37.9049 31.3778 38.0872 31.6465 38.2116 31.9422C38.3359 32.2379 38.4 32.5549 38.4 32.875C38.4 33.1951 38.3359 33.5121 38.2116 33.8078C38.0872 34.1035 37.9049 34.3722 37.675 34.5986C37.4452 34.8249 37.1724 35.0045 36.8721 35.127C36.5718 35.2495 36.25 35.3125 35.925 35.3125C35.5999 35.3125 35.2781 35.2495 34.9778 35.127C34.6775 35.0045 34.4047 34.8249 34.1749 34.5986C33.945 34.3722 33.7627 34.1035 33.6384 33.8078C33.514 33.5121 33.45 33.1951 33.45 32.875C33.45 32.5549 33.514 32.2379 33.6384 31.9422C33.7627 31.6465 33.945 31.3778 34.1749 31.1514C34.4047 30.9251 34.6775 30.7455 34.9778 30.623C35.2781 30.5005 35.5999 30.4375 35.925 30.4375Z" fill="#2FB4CF"/>
</g>
<defs>
<clipPath id="clip0_1362_620">
<path d="M12 15H45V41H12V15Z" fill="white"/>
</clipPath>
</defs>
</svg>
