<svg width="56" height="56" viewBox="0 0 56 56" fill="none" xmlns="http://www.w3.org/2000/svg">
<path d="M28 2C42.3594 2 54 13.6406 54 28C54 42.3594 42.3594 54 28 54C13.6406 54 2 42.3594 2 28C2 13.6406 13.6406 2 28 2Z" fill="#0C1F3E"/>
<path d="M28 2C42.3594 2 54 13.6406 54 28C54 42.3594 42.3594 54 28 54C13.6406 54 2 42.3594 2 28C2 13.6406 13.6406 2 28 2Z" stroke="#2FB4CF" stroke-width="4"/>
<path d="M44 42H12V17H44V42Z" stroke="#E5E7EB"/>
<path d="M40.9899 30.0713C43.8149 27.3125 43.8149 22.8447 40.9899 20.0859C38.4899 17.6445 34.5499 17.3272 31.6749 19.334L31.5949 19.3877C30.8749 19.8906 30.7099 20.8672 31.2249 21.5654C31.7399 22.2637 32.7399 22.4297 33.4549 21.9268L33.5349 21.8731C35.1399 20.7549 37.3349 20.9307 38.7249 22.293C40.2999 23.8311 40.2999 26.3213 38.7249 27.8594L33.1149 33.3477C31.5399 34.8858 28.9899 34.8858 27.4149 33.3477C26.0199 31.9854 25.8399 29.8418 26.9849 28.2793L27.0399 28.2012C27.5549 27.4981 27.3849 26.5215 26.6699 26.0234C25.9549 25.5254 24.9499 25.6865 24.4399 26.3848L24.3849 26.4629C22.3249 29.2656 22.6499 33.1133 25.1499 35.5547C27.9749 38.3135 32.5499 38.3135 35.3749 35.5547L40.9899 30.0713ZM15.0099 28.9287C12.1849 31.6875 12.1849 36.1553 15.0099 38.9141C17.5099 41.3555 21.4499 41.6729 24.3249 39.666L24.4049 39.6123C25.1249 39.1094 25.2899 38.1328 24.7749 37.4346C24.2599 36.7363 23.2599 36.5703 22.5449 37.0733L22.4649 37.127C20.8599 38.2451 18.6649 38.0693 17.2749 36.707C15.6999 35.1641 15.6999 32.6738 17.2749 31.1358L22.8849 25.6524C24.4599 24.1143 27.0099 24.1143 28.5849 25.6524C29.9799 27.0147 30.1599 29.1582 29.0149 30.7256L28.9599 30.8037C28.4449 31.5068 28.6149 32.4834 29.3299 32.9815C30.0449 33.4795 31.0499 33.3184 31.5599 32.6201L31.6149 32.542C33.6749 29.7344 33.3499 25.8867 30.8499 23.4453C28.0249 20.6865 23.4499 20.6865 20.6249 23.4453L15.0099 28.9287Z" fill="#2FB4CF"/>
</svg>
