<svg width="56" height="56" viewBox="0 0 56 56" fill="none" xmlns="http://www.w3.org/2000/svg">
<path d="M28 2C42.3594 2 54 13.6406 54 28C54 42.3594 42.3594 54 28 54C13.6406 54 2 42.3594 2 28C2 13.6406 13.6406 2 28 2Z" fill="#0C1F3E"/>
<path d="M28 2C42.3594 2 54 13.6406 54 28C54 42.3594 42.3594 54 28 54C13.6406 54 2 42.3594 2 28C2 13.6406 13.6406 2 28 2Z" stroke="#2FB4CF" stroke-width="4"/>
<path d="M28.5004 15C28.0322 15 27.5697 15.0812 27.1303 15.2379L10.9143 21.1158C10.3651 21.3189 10.0009 21.8411 10.0009 22.4271C10.0009 23.0132 10.3651 23.5354 10.9143 23.7385L14.2616 24.9512C13.3135 26.4482 12.7758 28.2179 12.7758 30.0805V31.711C12.7758 33.3589 12.1515 35.059 11.4866 36.3994C11.1109 37.1537 10.6831 37.8964 10.1859 38.5811C10.0009 38.8306 9.94886 39.1555 10.0529 39.4515C10.157 39.7474 10.3998 39.9679 10.7004 40.0433L14.4003 40.9717C14.6431 41.0355 14.9033 40.9891 15.1172 40.8556C15.3311 40.7222 15.4814 40.5017 15.5276 40.2522C16.0248 37.7688 15.7762 35.5406 15.4062 33.9449C15.2212 33.121 14.9726 32.2796 14.6258 31.5079V30.0805C14.6258 28.3282 15.2155 26.6745 16.2387 25.3515C16.9845 24.4522 17.9499 23.7269 19.083 23.2801L28.1594 19.7C28.6334 19.5143 29.1711 19.7464 29.356 20.2222C29.541 20.698 29.3098 21.2376 28.8357 21.4233L19.7594 25.0034C19.0425 25.2877 18.4124 25.7229 17.8979 26.2567L27.1245 29.5989C27.5639 29.7556 28.0264 29.8368 28.4947 29.8368C28.9629 29.8368 29.4254 29.7556 29.8648 29.5989L46.0866 23.7385C46.6358 23.5412 47 23.0132 47 22.4271C47 21.8411 46.6358 21.3189 46.0866 21.1158L29.8706 15.2379C29.4312 15.0812 28.9687 15 28.5004 15ZM17.4007 36.8172C17.4007 38.8654 22.3725 40.9949 28.5004 40.9949C34.6284 40.9949 39.6002 38.8654 39.6002 36.8172L38.7157 28.3804L30.4949 31.3629C29.8532 31.595 29.1768 31.711 28.5004 31.711C27.8241 31.711 27.1419 31.595 26.506 31.3629L18.2852 28.3804L17.4007 36.8172Z" fill="#2FB4CF"/>
</svg>
