<svg width="56" height="56" viewBox="0 0 56 56" fill="none" xmlns="http://www.w3.org/2000/svg">
<path d="M28 2C42.3594 2 54 13.6406 54 28C54 42.3594 42.3594 54 28 54C13.6406 54 2 42.3594 2 28C2 13.6406 13.6406 2 28 2Z" fill="#0C1F3E"/>
<path d="M28 2C42.3594 2 54 13.6406 54 28C54 42.3594 42.3594 54 28 54C13.6406 54 2 42.3594 2 28C2 13.6406 13.6406 2 28 2Z" stroke="#2FB4CF" stroke-width="4"/>
<path d="M23.1406 12C25.0115 12 26.5312 13.5197 26.5312 15.3906V39.6094C26.5312 41.4803 25.0115 43 23.1406 43C21.3908 43 19.9498 41.674 19.7682 39.9666C19.4533 40.0514 19.1203 40.0938 18.7812 40.0938C16.6439 40.0938 14.9062 38.3561 14.9062 36.2188C14.9062 35.7707 14.985 35.3348 15.1242 34.9352C13.2957 34.2449 12 32.477 12 30.4062C12 28.4748 13.1322 26.8037 14.773 26.0287C14.2463 25.3687 13.9375 24.5332 13.9375 23.625C13.9375 21.7662 15.2453 20.2162 16.9891 19.8348C16.8922 19.5018 16.8438 19.1445 16.8438 18.7812C16.8438 16.9709 18.091 15.4451 19.7682 15.0213C19.9498 13.326 21.3908 12 23.1406 12ZM31.8594 12C33.6092 12 35.0441 13.326 35.2318 15.0213C36.915 15.4451 38.1562 16.9648 38.1562 18.7812C38.1562 19.1445 38.1078 19.5018 38.0109 19.8348C39.7547 20.2102 41.0625 21.7662 41.0625 23.625C41.0625 24.5332 40.7537 25.3687 40.227 26.0287C41.8678 26.8037 43 28.4748 43 30.4062C43 32.477 41.7043 34.2449 39.8758 34.9352C40.015 35.3348 40.0938 35.7707 40.0938 36.2188C40.0938 38.3561 38.3561 40.0938 36.2188 40.0938C35.8797 40.0938 35.5467 40.0514 35.2318 39.9666C35.0502 41.674 33.6092 43 31.8594 43C29.9885 43 28.4688 41.4803 28.4688 39.6094V15.3906C28.4688 13.5197 29.9885 12 31.8594 12Z" fill="#2FB4CF"/>
</svg>
