<svg width="31" height="30" viewBox="0 0 31 30" fill="none" xmlns="http://www.w3.org/2000/svg">
<g clip-path="url(#clip0_1459_736)">
<path d="M20.6377 18.75C25.8174 18.75 30.0127 14.5547 30.0127 9.375C30.0127 8.47852 29.8838 7.61133 29.6494 6.78516C29.4678 6.15234 28.6885 6.01172 28.2256 6.47461L23.7256 10.9746C23.5498 11.1504 23.3096 11.25 23.0635 11.25H19.7002C19.1846 11.25 18.7627 10.8281 18.7627 10.3125V6.94922C18.7627 6.70312 18.8623 6.46289 19.0381 6.28711L23.5381 1.78711C24.001 1.32422 23.8545 0.544922 23.2275 0.363281C22.4014 0.128906 21.5342 0 20.6377 0C15.458 0 11.2627 4.19531 11.2627 9.375C11.2627 10.4941 11.4619 11.5723 11.8193 12.5684L1.17871 23.209C0.43457 23.9531 0.0126953 24.9668 0.0126953 26.0215C0.0126953 28.2188 1.79395 30 3.99121 30C5.0459 30 6.05957 29.5781 6.80371 28.834L17.4443 18.1934C18.4404 18.5566 19.5186 18.75 20.6377 18.75ZM4.7002 23.9062C5.07316 23.9062 5.43084 24.0544 5.69456 24.3181C5.95829 24.5819 6.10645 24.9395 6.10645 25.3125C6.10645 25.6855 5.95829 26.0431 5.69456 26.3069C5.43084 26.5706 5.07316 26.7188 4.7002 26.7188C4.32723 26.7188 3.96955 26.5706 3.70583 26.3069C3.4421 26.0431 3.29395 25.6855 3.29395 25.3125C3.29395 24.9395 3.4421 24.5819 3.70583 24.3181C3.96955 24.0544 4.32723 23.9062 4.7002 23.9062Z" fill="#2AAFCB"/>
</g>
<defs>
<clipPath id="clip0_1459_736">
<path d="M0.0126953 0H30.0127V30H0.0126953V0Z" fill="white"/>
</clipPath>
</defs>
</svg>
