<svg width="57" height="56" viewBox="0 0 57 56" fill="none" xmlns="http://www.w3.org/2000/svg">
<path d="M56.0127 56H0.0126953V0H56.0127V56Z" stroke="#E5E7EB"/>
<path d="M28.0127 2C42.3721 2 54.0127 13.6406 54.0127 28C54.0127 42.3594 42.3721 54 28.0127 54C13.6533 54 2.0127 42.3594 2.0127 28C2.0127 13.6406 13.6533 2 28.0127 2Z" stroke="#2AAFCB" stroke-width="4"/>
<path d="M44.8877 43H11.1377V13H44.8877V43Z" stroke="#E5E7EB"/>
<path d="M43.0127 43H13.0127V13H43.0127V43Z" stroke="#E5E7EB"/>
<g clip-path="url(#clip0_1459_731)">
<path d="M33.6377 31.75C38.8174 31.75 43.0127 27.5547 43.0127 22.375C43.0127 21.4785 42.8838 20.6113 42.6494 19.7852C42.4678 19.1523 41.6885 19.0117 41.2256 19.4746L36.7256 23.9746C36.5498 24.1504 36.3096 24.25 36.0635 24.25H32.7002C32.1846 24.25 31.7627 23.8281 31.7627 23.3125V19.9492C31.7627 19.7031 31.8623 19.4629 32.0381 19.2871L36.5381 14.7871C37.001 14.3242 36.8545 13.5449 36.2275 13.3633C35.4014 13.1289 34.5342 13 33.6377 13C28.458 13 24.2627 17.1953 24.2627 22.375C24.2627 23.4941 24.4619 24.5723 24.8193 25.5684L14.1787 36.209C13.4346 36.9531 13.0127 37.9668 13.0127 39.0215C13.0127 41.2188 14.7939 43 16.9912 43C18.0459 43 19.0596 42.5781 19.8037 41.834L30.4443 31.1934C31.4404 31.5566 32.5186 31.75 33.6377 31.75ZM17.7002 36.9062C18.0732 36.9062 18.4308 37.0544 18.6946 37.3181C18.9583 37.5819 19.1064 37.9395 19.1064 38.3125C19.1064 38.6855 18.9583 39.0431 18.6946 39.3069C18.4308 39.5706 18.0732 39.7188 17.7002 39.7188C17.3272 39.7188 16.9695 39.5706 16.7058 39.3069C16.4421 39.0431 16.2939 38.6855 16.2939 38.3125C16.2939 37.9395 16.4421 37.5819 16.7058 37.3181C16.9695 37.0544 17.3272 36.9062 17.7002 36.9062Z" fill="#2AAFCB"/>
</g>
<defs>
<clipPath id="clip0_1459_731">
<path d="M13.0127 13H43.0127V43H13.0127V13Z" fill="white"/>
</clipPath>
</defs>
</svg>
