<svg width="34" height="30" viewBox="0 0 34 30" fill="none" xmlns="http://www.w3.org/2000/svg">
<g clip-path="url(#clip0_1459_722)">
<path d="M14.752 27.627C15.3848 27.8496 16.0645 27.3867 16.0645 26.7187V4.60547C16.0645 4.35937 15.9707 4.11328 15.7715 3.96094C14.623 3.04687 11.9863 1.875 8.56445 1.875C5.60547 1.875 2.83984 2.6543 1.1875 3.28711C0.525391 3.54492 0.126953 4.20117 0.126953 4.91016V26.6074C0.126953 27.3047 0.876953 27.791 1.53906 27.5742C3.38477 26.959 6.30859 26.25 8.56445 26.25C10.5508 26.25 13.1934 27.0703 14.752 27.627ZM19.252 27.627C20.8105 27.0703 23.4531 26.25 25.4395 26.25C27.6953 26.25 30.6191 26.959 32.4648 27.5742C33.127 27.7969 33.877 27.3047 33.877 26.6074V4.91016C33.877 4.20117 33.4785 3.54492 32.8164 3.29297C31.1641 2.6543 28.3984 1.875 25.4395 1.875C22.0176 1.875 19.3809 3.04687 18.2324 3.96094C18.0391 4.11328 17.9395 4.35937 17.9395 4.60547V26.7187C17.9395 27.3867 18.625 27.8496 19.252 27.627Z" fill="#2AAFCB"/>
</g>
<defs>
<clipPath id="clip0_1459_722">
<path d="M0.126953 0H33.877V30H0.126953V0Z" fill="white"/>
</clipPath>
</defs>
</svg>
