<svg width="21" height="19" viewBox="0 0 21 19" fill="none" xmlns="http://www.w3.org/2000/svg">
<g clip-path="url(#clip0_1459_1132)">
<path d="M11.5894 4.28418C11.9846 4.0415 12.248 3.60122 12.248 3.10547C12.248 2.33931 11.6275 1.71875 10.8613 1.71875C10.0952 1.71875 9.47461 2.33931 9.47461 3.10547C9.47461 3.60469 9.73809 4.0415 10.1333 4.28418L8.14683 8.25713C7.83135 8.88809 7.01318 9.06836 6.46196 8.62808L3.37305 6.15625C3.54639 5.92397 3.65039 5.63623 3.65039 5.32422C3.65039 4.55806 3.02983 3.9375 2.26367 3.9375C1.49751 3.9375 0.876953 4.55806 0.876953 5.32422C0.876953 6.09038 1.49751 6.71094 2.26367 6.71094C2.27061 6.71094 2.28101 6.71094 2.28794 6.71094L3.87227 15.4265C4.06294 16.4804 4.98164 17.25 6.05635 17.25H15.6663C16.7375 17.25 17.6562 16.4838 17.8504 15.4265L19.4347 6.71094C19.4417 6.71094 19.4521 6.71094 19.459 6.71094C20.2251 6.71094 20.8457 6.09038 20.8457 5.32422C20.8457 4.55806 20.2251 3.9375 19.459 3.9375C18.6928 3.9375 18.0723 4.55806 18.0723 5.32422C18.0723 5.63623 18.1763 5.92397 18.3496 6.15625L15.2607 8.62808C14.7095 9.06836 13.8913 8.88809 13.5758 8.25713L11.5894 4.28418Z" fill="#FDE047"/>
</g>
<defs>
<clipPath id="clip0_1459_1132">
<path d="M0.876953 0.609375H20.8457V18.3594H0.876953V0.609375Z" fill="white"/>
</clipPath>
</defs>
</svg>
