<svg width="56" height="56" viewBox="0 0 56 56" fill="none" xmlns="http://www.w3.org/2000/svg">
<path d="M28.002 2C42.3614 2 54.002 13.6406 54.002 28C54.002 42.3594 42.3614 54 28.002 54C13.6426 54 2.00195 42.3594 2.00195 28C2.00195 13.6406 13.6426 2 28.002 2Z" stroke="#2AAFCB" stroke-width="4"/>
<path d="M46.877 43H13.127V13H46.877V43Z" stroke="#E5E7EB"/>
<path d="M43.002 43H13.002V13H43.002V43Z" stroke="#E5E7EB"/>
<g clip-path="url(#clip0_1459_760)">
<path d="M33.627 28C33.627 29.3008 33.5566 30.5547 33.4336 31.75H22.5703C22.4414 30.5547 22.377 29.3008 22.377 28C22.377 26.6992 22.4473 25.4453 22.5703 24.25H33.4336C33.5625 25.4453 33.627 26.6992 33.627 28ZM35.3145 24.25H42.5273C42.8379 25.4512 43.002 26.7051 43.002 28C43.002 29.2949 42.8379 30.5488 42.5273 31.75H35.3145C35.4375 30.543 35.502 29.2891 35.502 28C35.502 26.7109 35.4375 25.457 35.3145 24.25ZM41.9121 22.375H35.0742C34.4883 18.6309 33.3281 15.4961 31.834 13.4922C36.4219 14.7051 40.1543 18.0332 41.9062 22.375H41.9121ZM33.1758 22.375H22.8281C23.1855 20.2422 23.7363 18.3555 24.4102 16.8262C25.0254 15.4434 25.7109 14.4414 26.373 13.8086C27.0293 13.1875 27.5742 13 28.002 13C28.4297 13 28.9746 13.1875 29.6309 13.8086C30.293 14.4414 30.9785 15.4434 31.5938 16.8262C32.2734 18.3496 32.8184 20.2363 33.1758 22.375ZM20.9297 22.375H14.0918C15.8496 18.0332 19.5762 14.7051 24.1699 13.4922C22.6758 15.4961 21.5156 18.6309 20.9297 22.375ZM13.4766 24.25H20.6895C20.5664 25.457 20.502 26.7109 20.502 28C20.502 29.2891 20.5664 30.543 20.6895 31.75H13.4766C13.166 30.5488 13.002 29.2949 13.002 28C13.002 26.7051 13.166 25.4512 13.4766 24.25ZM24.4102 39.168C23.7305 37.6445 23.1855 35.7578 22.8281 33.625H33.1758C32.8184 35.7578 32.2676 37.6445 31.5938 39.168C30.9785 40.5508 30.293 41.5527 29.6309 42.1855C28.9746 42.8125 28.4297 43 28.002 43C27.5742 43 27.0293 42.8125 26.373 42.1914C25.7109 41.5586 25.0254 40.5566 24.4102 39.1738V39.168ZM20.9297 33.625C21.5156 37.3691 22.6758 40.5039 24.1699 42.5078C19.5762 41.2949 15.8496 37.9668 14.0918 33.625H20.9297ZM41.9121 33.625C40.1543 37.9668 36.4277 41.2949 31.8398 42.5078C33.334 40.5039 34.4883 37.3691 35.0801 33.625H41.9121Z" fill="#2AAFCB"/>
</g>
<defs>
<clipPath id="clip0_1459_760">
<path d="M13.002 13H43.002V43H13.002V13Z" fill="white"/>
</clipPath>
</defs>
</svg>
