<svg width="30" height="30" viewBox="0 0 30 30" fill="none" xmlns="http://www.w3.org/2000/svg">
<g clip-path="url(#clip0_1459_766)">
<path d="M20.627 15C20.627 16.3008 20.5566 17.5547 20.4336 18.75H9.57031C9.44141 17.5547 9.37695 16.3008 9.37695 15C9.37695 13.6992 9.44727 12.4453 9.57031 11.25H20.4336C20.5625 12.4453 20.627 13.6992 20.627 15ZM22.3145 11.25H29.5273C29.8379 12.4512 30.002 13.7051 30.002 15C30.002 16.2949 29.8379 17.5488 29.5273 18.75H22.3145C22.4375 17.543 22.502 16.2891 22.502 15C22.502 13.7109 22.4375 12.457 22.3145 11.25ZM28.9121 9.375H22.0742C21.4883 5.63086 20.3281 2.49609 18.834 0.492187C23.4219 1.70508 27.1543 5.0332 28.9062 9.375H28.9121ZM20.1758 9.375H9.82812C10.1855 7.24219 10.7363 5.35547 11.4102 3.82617C12.0254 2.44336 12.7109 1.44141 13.373 0.808594C14.0293 0.1875 14.5742 0 15.002 0C15.4297 0 15.9746 0.1875 16.6309 0.808594C17.293 1.44141 17.9785 2.44336 18.5938 3.82617C19.2734 5.34961 19.8184 7.23633 20.1758 9.375ZM7.92969 9.375H1.0918C2.84961 5.0332 6.57617 1.70508 11.1699 0.492187C9.67578 2.49609 8.51562 5.63086 7.92969 9.375ZM0.476563 11.25H7.68945C7.56641 12.457 7.50195 13.7109 7.50195 15C7.50195 16.2891 7.56641 17.543 7.68945 18.75H0.476563C0.166016 17.5488 0.00195312 16.2949 0.00195312 15C0.00195312 13.7051 0.166016 12.4512 0.476563 11.25ZM11.4102 26.168C10.7305 24.6445 10.1855 22.7578 9.82812 20.625H20.1758C19.8184 22.7578 19.2676 24.6445 18.5938 26.168C17.9785 27.5508 17.293 28.5527 16.6309 29.1855C15.9746 29.8125 15.4297 30 15.002 30C14.5742 30 14.0293 29.8125 13.373 29.1914C12.7109 28.5586 12.0254 27.5566 11.4102 26.1738V26.168ZM7.92969 20.625C8.51562 24.3691 9.67578 27.5039 11.1699 29.5078C6.57617 28.2949 2.84961 24.9668 1.0918 20.625H7.92969ZM28.9121 20.625C27.1543 24.9668 23.4277 28.2949 18.8398 29.5078C20.334 27.5039 21.4883 24.3691 22.0801 20.625H28.9121Z" fill="#2AAFCB"/>
</g>
<defs>
<clipPath id="clip0_1459_766">
<path d="M0.00195312 0H30.002V30H0.00195312V0Z" fill="white"/>
</clipPath>
</defs>
</svg>
