<svg width="1819" height="267" viewBox="0 0 1819 267" fill="none" xmlns="http://www.w3.org/2000/svg">
<path opacity="0.05" d="M0.710228 263V227.349L126.499 54.9119H0.836648V4.0909H205.638V39.7415L79.8494 212.179H205.511V263H0.710228ZM243.912 263V4.0909H424.44V54.9119H306.49V108.009H415.211V158.956H306.49V212.179H424.44V263H243.912ZM463.63 263V4.0909H570.582C589.967 4.0909 606.696 7.58853 620.771 14.5838C634.93 21.4948 645.844 31.4399 653.514 44.419C661.183 57.3139 665.018 72.6108 665.018 90.3097C665.018 108.261 661.099 123.516 653.261 136.074C645.423 148.547 634.298 158.071 619.886 164.645C605.474 171.134 588.407 174.379 568.686 174.379H501.051V125.075H557.055C566.494 125.075 574.375 123.853 580.696 121.409C587.101 118.881 591.947 115.088 595.234 110.031C598.521 104.89 600.164 98.3163 600.164 90.3097C600.164 82.303 598.521 75.687 595.234 70.4616C591.947 65.152 587.101 61.1908 580.696 58.5781C574.29 55.8812 566.41 54.5327 557.055 54.5327H526.208V263H463.63ZM609.393 144.67L673.868 263H605.601L542.39 144.67H609.393ZM943.712 133.545C943.712 162.032 938.234 186.179 927.277 205.984C916.321 225.79 901.488 240.834 882.777 251.116C864.151 261.399 843.25 266.54 820.073 266.54C796.811 266.54 775.868 261.357 757.242 250.99C738.616 240.624 723.825 225.58 712.868 205.858C701.996 186.052 696.56 161.948 696.56 133.545C696.56 105.059 701.996 80.9124 712.868 61.1065C723.825 41.3007 738.616 26.2566 757.242 15.9744C775.868 5.69223 796.811 0.551127 820.073 0.551127C843.25 0.551127 864.151 5.69223 882.777 15.9744C901.488 26.2566 916.321 41.3007 927.277 61.1065C938.234 80.9124 943.712 105.059 943.712 133.545ZM879.743 133.545C879.743 116.689 877.341 102.446 872.537 90.8153C867.818 79.1846 860.991 70.3774 852.057 64.3935C843.208 58.4096 832.546 55.4176 820.073 55.4176C807.684 55.4176 797.022 58.4096 788.088 64.3935C779.155 70.3774 772.286 79.1846 767.482 90.8153C762.762 102.446 760.402 116.689 760.402 133.545C760.402 150.402 762.762 164.645 767.482 176.276C772.286 187.906 779.155 196.714 788.088 202.697C797.022 208.681 807.684 211.673 820.073 211.673C832.546 211.673 843.208 208.681 852.057 202.697C860.991 196.714 867.818 187.906 872.537 176.276C877.341 164.645 879.743 150.402 879.743 133.545ZM980.248 263V4.0909H1042.83V113.571H1046.24L1131.83 4.0909H1205.53L1113.75 119.639L1207.17 263H1132.33L1067.86 161.232L1042.83 192.837V263H980.248ZM1459.29 133.545C1459.29 162.032 1453.81 186.179 1442.85 205.984C1431.9 225.79 1417.06 240.834 1398.35 251.116C1379.73 261.399 1358.82 266.54 1335.65 266.54C1312.39 266.54 1291.44 261.357 1272.82 250.99C1254.19 240.624 1239.4 225.58 1228.44 205.858C1217.57 186.052 1212.13 161.948 1212.13 133.545C1212.13 105.059 1217.57 80.9124 1228.44 61.1065C1239.4 41.3007 1254.19 26.2566 1272.82 15.9744C1291.44 5.69223 1312.39 0.551127 1335.65 0.551127C1358.82 0.551127 1379.73 5.69223 1398.35 15.9744C1417.06 26.2566 1431.9 41.3007 1442.85 61.1065C1453.81 80.9124 1459.29 105.059 1459.29 133.545ZM1395.32 133.545C1395.32 116.689 1392.92 102.446 1388.11 90.8153C1383.39 79.1846 1376.57 70.3774 1367.63 64.3935C1358.78 58.4096 1348.12 55.4176 1335.65 55.4176C1323.26 55.4176 1312.6 58.4096 1303.66 64.3935C1294.73 70.3774 1287.86 79.1846 1283.06 90.8153C1278.34 102.446 1275.98 116.689 1275.98 133.545C1275.98 150.402 1278.34 164.645 1283.06 176.276C1287.86 187.906 1294.73 196.714 1303.66 202.697C1312.6 208.681 1323.26 211.673 1335.65 211.673C1348.12 211.673 1358.78 208.681 1367.63 202.697C1376.57 196.714 1383.39 187.906 1388.11 176.276C1392.92 164.645 1395.32 150.402 1395.32 133.545ZM1558.4 4.0909V263H1495.82V4.0909H1558.4ZM1818.04 4.0909V263H1764.94L1661.91 113.571H1660.26V263H1597.69V4.0909H1651.54L1753.44 153.267H1755.58V4.0909H1818.04Z" fill="url(#paint0_linear_1362_718)"/>
<defs>
<linearGradient id="paint0_linear_1362_718" x1="910" y1="-195.421" x2="910" y2="349" gradientUnits="userSpaceOnUse">
<stop offset="0.461356" stop-color="white" stop-opacity="0.7"/>
<stop offset="0.871639" stop-color="white" stop-opacity="0"/>
</linearGradient>
</defs>
</svg>
